<?xml version="1.0" encoding="UTF-8"?><svg id="Layer_2" xmlns="http://www.w3.org/2000/svg" viewBox="0 0 55.01 56.96"><defs><style>.cls-1{stroke:#815da3;}.cls-1,.cls-2,.cls-3{fill:none;fill-rule:evenodd;stroke-miterlimit:22.93;stroke-width:1.8px;}.cls-2{stroke:#e55d9d;}.cls-3{stroke:#fc0;}</style></defs><g id="Main"><g id="Symbol"><path class="cls-1" d="M35.03,47.72c-1,.17-2.05.32-3.15.45l-9.61,7.02v-7.02C.26,44.81-1.47,36.28,2.71,31.03M41.22,46.25c-.97.31-2,.59-3.1.85M9.41,15.8c1.83,0,3.31,1.48,3.31,3.3s-1.48,3.31-3.31,3.31-3.31-1.48-3.31-3.31,1.48-3.3,3.31-3.3Z"/><path class="cls-2" d="M42.47,22.4c9.06-2.8,20.02,14.91,1.74,22.75M43.82,9.91c2.23,0,4.04,1.81,4.04,4.04s-1.81,4.04-4.04,4.04-4.04-1.81-4.04-4.04,1.81-4.04,4.04-4.04Z"/><path class="cls-3" d="M6.07,28.18c2.35-1.34,5.13-1.91,7.48-1.21,15.5,4.62-4.11,23.2-.57,2.94,3.44-19.67,23.47-17.85,28.35.71,4.88,18.55-12.89,6.34-2.49-5.73M24.99.9c3.03,0,5.49,2.46,5.49,5.49s-2.46,5.49-5.49,5.49-5.49-2.46-5.49-5.49S21.95.9,24.99.9h0ZM26.57,22.73l1.85,3.89,4.42-.5-3.28,2.89,1.86,3.88-3.88-2.1-3.27,2.9.89-4.19-3.88-2.09,4.42-.49.87-4.19Z"/></g></g></svg>